<svg width="20" height="21" viewBox="0 0 20 21" fill="none" xmlns="http://www.w3.org/2000/svg">
<g clip-path="url(#clip0_4_20)">
<path d="M16.9312 4.35912C15.6562 3.78412 14.2896 3.35912 12.8604 3.11745C12.8477 3.11501 12.8345 3.11658 12.8227 3.12195C12.8109 3.12733 12.8011 3.13624 12.7946 3.14745C12.6196 3.45495 12.4246 3.85578 12.2879 4.17245C10.7721 3.94598 9.23115 3.94598 7.7154 4.17245C7.56318 3.8215 7.39152 3.4793 7.20123 3.14745C7.19478 3.1361 7.18503 3.12699 7.17326 3.12133C7.1615 3.11567 7.14829 3.11374 7.1354 3.11578C5.70707 3.35745 4.3404 3.78245 3.06457 4.35828C3.05359 4.36289 3.04429 4.37074 3.0379 4.38078C0.444567 8.19328 -0.266266 11.9116 0.0829005 15.5833C0.0838721 15.5923 0.0866635 15.601 0.0911046 15.6089C0.0955458 15.6167 0.101544 15.6236 0.108734 15.6291C1.62239 16.7311 3.31068 17.5706 5.1029 18.1124C5.11539 18.1163 5.12876 18.1163 5.14124 18.1124C5.15373 18.1086 5.16476 18.101 5.1729 18.0908C5.55856 17.575 5.90031 17.0278 6.19457 16.4549C6.19865 16.4471 6.201 16.4385 6.20147 16.4297C6.20193 16.4209 6.2005 16.412 6.19726 16.4038C6.19402 16.3956 6.18905 16.3882 6.18269 16.382C6.17633 16.3759 6.16873 16.3712 6.1604 16.3683C5.62207 16.1656 5.10047 15.9209 4.6004 15.6366C4.59141 15.6315 4.58384 15.6242 4.57836 15.6154C4.57289 15.6067 4.56967 15.5967 4.56901 15.5863C4.56835 15.576 4.57026 15.5657 4.57458 15.5563C4.57889 15.5469 4.58548 15.5387 4.59373 15.5324C4.69873 15.4549 4.80373 15.3741 4.90373 15.2933C4.91273 15.286 4.92358 15.2814 4.93505 15.2799C4.94653 15.2784 4.95819 15.2802 4.96873 15.2849C8.24123 16.7549 11.7854 16.7549 15.0196 15.2849C15.0301 15.2799 15.0419 15.2779 15.0536 15.2793C15.0652 15.2806 15.0762 15.2852 15.0854 15.2924C15.1854 15.3741 15.2896 15.4549 15.3954 15.5324C15.4037 15.5386 15.4104 15.5466 15.4149 15.5559C15.4193 15.5653 15.4214 15.5756 15.4209 15.5859C15.4204 15.5962 15.4174 15.6062 15.412 15.6151C15.4067 15.6239 15.3993 15.6313 15.3904 15.6366C14.8921 15.9233 14.3737 16.1658 13.8296 16.3674C13.8212 16.3705 13.8136 16.3753 13.8072 16.3815C13.8009 16.3877 13.7959 16.3952 13.7927 16.4035C13.7894 16.4117 13.788 16.4206 13.7885 16.4295C13.789 16.4384 13.7913 16.4471 13.7954 16.4549C14.0954 17.0274 14.4387 17.5724 14.8162 18.0899C14.8241 18.1006 14.835 18.1085 14.8475 18.1127C14.8601 18.1169 14.8736 18.1171 14.8862 18.1133C16.6815 17.573 18.3726 16.7331 19.8879 15.6291C19.8953 15.6239 19.9015 15.6173 19.9061 15.6095C19.9107 15.6017 19.9136 15.5931 19.9146 15.5841C20.3312 11.3391 19.2162 7.65078 16.9571 4.38245C16.9515 4.37183 16.9424 4.36355 16.9312 4.35912ZM6.68373 13.3474C5.69873 13.3474 4.88623 12.4566 4.88623 11.3641C4.88623 10.2708 5.6829 9.38078 6.68373 9.38078C7.69207 9.38078 8.49707 10.2783 8.48123 11.3641C8.48123 12.4574 7.68457 13.3474 6.68373 13.3474ZM13.3296 13.3474C12.3437 13.3474 11.5321 12.4566 11.5321 11.3641C11.5321 10.2708 12.3279 9.38078 13.3296 9.38078C14.3379 9.38078 15.1429 10.2783 15.1271 11.3641C15.1271 12.4574 14.3387 13.3474 13.3296 13.3474Z" fill="black"/>
</g>
<defs>
<clipPath id="clip0_4_20">
<rect width="20" height="20" fill="white" transform="translate(0 0.615723)"/>
</clipPath>
</defs>
</svg>
