<svg width="20" height="21" viewBox="0 0 20 21" fill="none" xmlns="http://www.w3.org/2000/svg">
<path fill-rule="evenodd" clip-rule="evenodd" d="M6.22051 1.50397C7.19801 1.45897 7.50967 1.44897 9.99967 1.44897C12.4897 1.44897 12.8013 1.45981 13.778 1.50397C14.7547 1.54814 15.4213 1.70397 16.0047 1.92981C16.6155 2.16064 17.1697 2.52147 17.628 2.98814C18.0947 3.44564 18.4547 3.99897 18.6847 4.61064C18.9113 5.19397 19.0663 5.86064 19.1113 6.83564C19.1563 7.81481 19.1663 8.12647 19.1663 10.6156C19.1663 13.1056 19.1555 13.4173 19.1113 14.3948C19.0672 15.3698 18.9113 16.0365 18.6847 16.6198C18.4547 17.2316 18.0941 17.7858 17.628 18.244C17.1697 18.7106 16.6155 19.0706 16.0047 19.3006C15.4213 19.5273 14.7547 19.6823 13.7797 19.7273C12.8013 19.7723 12.4897 19.7823 9.99967 19.7823C7.50967 19.7823 7.19801 19.7715 6.22051 19.7273C5.24551 19.6831 4.57884 19.5273 3.99551 19.3006C3.38377 19.0706 2.82952 18.71 2.37134 18.244C1.90499 17.7862 1.5441 17.2322 1.31384 16.6206C1.08801 16.0373 0.933008 15.3706 0.888008 14.3956C0.843008 13.4165 0.833008 13.1048 0.833008 10.6156C0.833008 8.12564 0.843841 7.81397 0.888008 6.83731C0.932174 5.86064 1.08801 5.19397 1.31384 4.61064C1.54444 3.99904 1.90561 3.44507 2.37217 2.98731C2.82971 2.52106 3.3834 2.16018 3.99467 1.92981C4.57801 1.70397 5.24467 1.54897 6.21967 1.50397H6.22051ZM13.7038 3.15397C12.7372 3.10981 12.4472 3.10064 9.99967 3.10064C7.55217 3.10064 7.26217 3.10981 6.29551 3.15397C5.40134 3.19481 4.91634 3.34397 4.59301 3.46981C4.16551 3.63647 3.85967 3.83397 3.53884 4.15481C3.23471 4.45068 3.00066 4.81088 2.85384 5.20897C2.72801 5.53231 2.57884 6.01731 2.53801 6.91147C2.49384 7.87814 2.48467 8.16814 2.48467 10.6156C2.48467 13.0631 2.49384 13.3531 2.53801 14.3198C2.57884 15.214 2.72801 15.699 2.85384 16.0223C3.00051 16.4198 3.23467 16.7806 3.53884 17.0765C3.83467 17.3806 4.19551 17.6148 4.59301 17.7615C4.91634 17.8873 5.40134 18.0365 6.29551 18.0773C7.26217 18.1215 7.55134 18.1306 9.99967 18.1306C12.448 18.1306 12.7372 18.1215 13.7038 18.0773C14.598 18.0365 15.083 17.8873 15.4063 17.7615C15.8338 17.5948 16.1397 17.3973 16.4605 17.0765C16.7647 16.7806 16.9988 16.4198 17.1455 16.0223C17.2713 15.699 17.4205 15.214 17.4613 14.3198C17.5055 13.3531 17.5147 13.0631 17.5147 10.6156C17.5147 8.16814 17.5055 7.87814 17.4613 6.91147C17.4205 6.01731 17.2713 5.53231 17.1455 5.20897C16.9788 4.78147 16.7813 4.47564 16.4605 4.15481C16.1646 3.8507 15.8044 3.61665 15.4063 3.46981C15.083 3.34397 14.598 3.19481 13.7038 3.15397ZM8.82884 13.4415C9.48272 13.7137 10.2108 13.7504 10.8888 13.5454C11.5667 13.3404 12.1525 12.9064 12.546 12.3175C12.9395 11.7286 13.1164 11.0214 13.0464 10.3166C12.9764 9.61176 12.6638 8.95312 12.1622 8.45314C11.8424 8.13354 11.4557 7.88882 11.03 7.7366C10.6042 7.58438 10.15 7.52844 9.70009 7.57282C9.25014 7.6172 8.81563 7.76079 8.42784 7.99325C8.04005 8.22571 7.70863 8.54126 7.45743 8.91718C7.20622 9.29311 7.0415 9.72005 6.9751 10.1673C6.90871 10.6145 6.9423 11.0709 7.07346 11.5036C7.20461 11.9363 7.43007 12.3345 7.73361 12.6696C8.03714 13.0047 8.41119 13.2683 8.82884 13.4415ZM6.66801 7.28397C7.10553 6.84645 7.62494 6.49939 8.19659 6.26261C8.76824 6.02582 9.38093 5.90395 9.99967 5.90395C10.6184 5.90395 11.2311 6.02582 11.8028 6.26261C12.3744 6.49939 12.8938 6.84645 13.3313 7.28397C13.7689 7.72149 14.1159 8.24091 14.3527 8.81256C14.5895 9.3842 14.7114 9.99689 14.7114 10.6156C14.7114 11.2344 14.5895 11.8471 14.3527 12.4187C14.1159 12.9904 13.7689 13.5098 13.3313 13.9473C12.4477 14.8309 11.2493 15.3273 9.99967 15.3273C8.75006 15.3273 7.55162 14.8309 6.66801 13.9473C5.78439 13.0637 5.28799 11.8653 5.28799 10.6156C5.28799 9.36602 5.78439 8.16759 6.66801 7.28397ZM15.7563 6.60564C15.8648 6.50337 15.9516 6.38037 16.0116 6.24395C16.0716 6.10753 16.1037 5.96045 16.1059 5.81142C16.108 5.66238 16.0803 5.51443 16.0242 5.37632C15.9682 5.2382 15.885 5.11273 15.7796 5.00734C15.6742 4.90195 15.5488 4.81877 15.4107 4.76274C15.2726 4.70671 15.1246 4.67895 14.9756 4.68113C14.8265 4.6833 14.6795 4.71535 14.543 4.77539C14.4066 4.83542 14.2836 4.92222 14.1813 5.03064C13.9824 5.2415 13.8735 5.52158 13.8778 5.81142C13.882 6.10126 13.999 6.37804 14.204 6.58301C14.4089 6.78798 14.6857 6.905 14.9756 6.90922C15.2654 6.91345 15.5455 6.80455 15.7563 6.60564Z" fill="black"/>
</svg>
