<svg width="20" height="21" viewBox="0 0 20 21" fill="none" xmlns="http://www.w3.org/2000/svg">
<path d="M19.7029 4.72987C19.0071 5.03821 18.2596 5.24654 17.4737 5.34071C18.2846 4.85553 18.8912 4.09193 19.1804 3.19237C18.4186 3.64486 17.5849 3.96337 16.7154 4.13404C16.1307 3.50976 15.3563 3.09598 14.5124 2.95693C13.6684 2.81789 12.8022 2.96137 12.0481 3.36508C11.2941 3.7688 10.6944 4.41017 10.3422 5.18963C9.99003 5.96908 9.90503 6.843 10.1004 7.67571C8.55682 7.5982 7.04677 7.197 5.66827 6.49813C4.28977 5.79926 3.07362 4.81834 2.09875 3.61904C1.76542 4.19404 1.57375 4.86071 1.57375 5.57071C1.57338 6.20987 1.73078 6.83924 2.03198 7.40298C2.33319 7.96672 2.76888 8.4474 3.30042 8.80237C2.68398 8.78276 2.08114 8.61619 1.54208 8.31654V8.36654C1.54202 9.26299 1.85211 10.1319 2.41974 10.8257C2.98736 11.5196 3.77756 11.9956 4.65625 12.1732C4.0844 12.328 3.48486 12.3508 2.90292 12.2399C3.15083 13.0112 3.63375 13.6857 4.28406 14.169C4.93437 14.6522 5.71951 14.92 6.52958 14.9349C5.15444 16.0144 3.45616 16.5999 1.70792 16.5974C1.39823 16.5975 1.08881 16.5794 0.78125 16.5432C2.55581 17.6842 4.62153 18.2897 6.73125 18.2874C13.8729 18.2874 17.7771 12.3724 17.7771 7.24237C17.7771 7.07571 17.7729 6.90737 17.7654 6.74071C18.5248 6.19152 19.1803 5.51145 19.7013 4.73237L19.7029 4.72987Z" fill="black"/>
</svg>
